# xmcd CD database file
#
# Track frame offsets:
#	150
#	9715
#	25966
#	44574
#	58344
#	71848
#	80239
#	94796
#	109273
#	122249
#	134409
#	143263
#	155090
#	167727
#	178205
#	191153
#	207780
#	217259
#	229543
#	242417
#	252063
#	265805
#	280994
#	292616
#	304997
#
# Disc length: 4217 seconds
#
# Revision: 0
# Processed by: cddbd v1.4PL0 Copyright (c) Steve Scherf et al.
# Submitted via: CDex 1.40Beta8
#
DISCID=7e107719
DTITLE=Elvis Presley - The Country Side of Elvis
DYEAR=1999
DGENRE=Country
TTITLE0=Just Call Me Lonesome
TTITLE1=Green, Green Grass of Home
TTITLE2=Faded Love
TTITLE3=It's A Matter of Time
TTITLE4=There Goes My Everything
TTITLE5=Wild in the Country
TTITLE6=Good Time Charlie's Got the Blues
TTITLE7=For the Good Times
TTITLE8=I;m Movin' On
TTITLE9=It's A Sin
TTITLE10=What Now, What Next, Where to
TTITLE11=It Keeps Right On A-Hurtin'
TTITLE12=Help Me Make It Throught the Night
TTITLE13=Singing Tree
TTITLE14=You Asked Me To
TTITLE15=Blue Eyes Crying in the Rain
TTITLE16=Snowbird
TTITLE17=Fool
TTITLE18=Loving Arms
TTITLE19=Mr Songman
TTITLE20=Fairytale
TTITLE21=Gentle On My Mind
TTITLE22=I Will Be Home Again
TTITLE23=If I'm A Fool (For Loving You)
TTITLE24=You Don't Know Me
EXTD=YEAR: 1999 ID3G: 2
EXTT0=
EXTT1=
EXTT2=
EXTT3=
EXTT4=
EXTT5=
EXTT6=
EXTT7=
EXTT8=
EXTT9=
EXTT10=
EXTT11=
EXTT12=
EXTT13=
EXTT14=
EXTT15=
EXTT16=
EXTT17=
EXTT18=
EXTT19=
EXTT20=
EXTT21=
EXTT22=
EXTT23=
EXTT24=
PLAYORDER=
